<svg width="94" height="44" viewBox="0 0 94 44" fill="none" xmlns="http://www.w3.org/2000/svg">
<rect x="1.5" y="10.5" width="82" height="32" stroke="white" stroke-width="3"/>
<path d="M20.1054 35.22C18.4254 35.22 17.2321 34.7533 16.5254 33.82C15.8321 32.8733 15.4854 31.54 15.4854 29.82V24.04C15.4854 22.2667 15.8321 20.92 16.5254 20C17.2187 19.08 18.4121 18.62 20.1054 18.62C21.6921 18.62 22.8187 19.02 23.4854 19.82C24.1521 20.62 24.4854 21.7733 24.4854 23.28V24.64H21.6454V23.24C21.6454 22.6667 21.6187 22.22 21.5654 21.9C21.5121 21.5667 21.3721 21.3 21.1454 21.1C20.9321 20.8867 20.5921 20.78 20.1254 20.78C19.6454 20.78 19.2854 20.8933 19.0454 21.12C18.8054 21.3333 18.6454 21.6267 18.5654 22C18.4987 22.36 18.4654 22.8333 18.4654 23.42V30.44C18.4654 31.36 18.5854 32.0267 18.8254 32.44C19.0654 32.84 19.4987 33.04 20.1254 33.04C20.5787 33.04 20.9121 32.9333 21.1254 32.72C21.3521 32.5067 21.4921 32.2267 21.5454 31.88C21.6121 31.52 21.6454 31.0467 21.6454 30.46V29H24.4854V30.3C24.4854 31.86 24.1587 33.0733 23.5054 33.94C22.8521 34.7933 21.7187 35.22 20.1054 35.22ZM28.5462 18.8H32.4462C34.1528 18.8 35.4262 19.1267 36.2662 19.78C37.1062 20.42 37.5262 21.5267 37.5262 23.1C37.5262 24.1267 37.3728 24.9667 37.0662 25.62C36.7728 26.26 36.2595 26.7267 35.5262 27.02L37.7862 35H34.8262L32.8862 27.58H31.4862V35H28.5462V18.8ZM32.4262 25.74C33.2662 25.74 33.8595 25.5467 34.2062 25.16C34.5662 24.7733 34.7462 24.14 34.7462 23.26C34.7462 22.4067 34.5862 21.7867 34.2662 21.4C33.9595 21.0133 33.3995 20.82 32.5862 20.82H31.4862V25.74H32.4262ZM41.8371 18.8H44.7571V35H41.8371V18.8ZM53.3449 35.22C51.8783 35.22 50.7783 34.8067 50.0449 33.98C49.3249 33.1533 48.9316 31.92 48.8649 30.28L51.4049 29.78C51.4449 30.8067 51.6049 31.5933 51.8849 32.14C52.1783 32.6733 52.6316 32.94 53.2449 32.94C53.6983 32.94 54.0316 32.8067 54.2449 32.54C54.4716 32.26 54.5849 31.8867 54.5849 31.42C54.5849 30.78 54.4383 30.24 54.1449 29.8C53.8649 29.3467 53.4183 28.8533 52.8049 28.32L50.7649 26.54C50.1383 26.0067 49.6649 25.4333 49.3449 24.82C49.0383 24.2067 48.8849 23.4733 48.8849 22.62C48.8849 21.3533 49.2516 20.3733 49.9849 19.68C50.7316 18.9733 51.7583 18.62 53.0649 18.62C54.4649 18.62 55.4649 19.02 56.0649 19.82C56.6783 20.6067 57.0316 21.6733 57.1249 23.02L54.5849 23.46C54.5449 22.58 54.4183 21.92 54.2049 21.48C54.0049 21.0267 53.6049 20.8 53.0049 20.8C52.5783 20.8 52.2449 20.9467 52.0049 21.24C51.7649 21.52 51.6449 21.88 51.6449 22.32C51.6449 22.84 51.7449 23.28 51.9449 23.64C52.1583 23.9867 52.4983 24.36 52.9649 24.76L54.9849 26.54C55.7449 27.1933 56.3383 27.8933 56.7649 28.64C57.1916 29.3867 57.4049 30.2533 57.4049 31.24C57.4049 32.0133 57.2316 32.7 56.8849 33.3C56.5516 33.9 56.0783 34.3733 55.4649 34.72C54.8516 35.0533 54.1449 35.22 53.3449 35.22ZM61.1477 18.8H65.9077C68.6677 18.8 70.0477 20.3333 70.0477 23.4C70.0477 26.3333 68.6011 27.8 65.7077 27.8H64.0877V35H61.1477V18.8ZM65.2277 25.72C66.0277 25.72 66.5677 25.5533 66.8477 25.22C67.1277 24.8733 67.2677 24.26 67.2677 23.38C67.2677 22.74 67.2211 22.2533 67.1277 21.92C67.0344 21.5733 66.8411 21.3133 66.5477 21.14C66.2677 20.9667 65.8277 20.88 65.2277 20.88H64.0877V25.72H65.2277Z" fill="white"/>
<path d="M89.5 38V33.5H92.5V1.5H10.5V4.5H6.5" stroke="white" stroke-width="3"/>
</svg>
