<svg width="18" height="18" viewBox="0 0 18 18" fill="none" xmlns="http://www.w3.org/2000/svg">
<path d="M9.03932 13.3397L9.03928 13.3397L9.03749 13.3414L8.9984 13.3787L8.95355 13.3398L8.95352 13.3398C7.2426 11.8593 5.82523 10.6325 4.83513 9.52815C3.84434 8.42306 3.29 7.44967 3.29 6.47676C3.29 5.13329 4.34535 4.12349 5.76 4.12349C6.85077 4.12349 7.91102 4.79988 8.28411 5.7129L8.29682 5.74398H8.3304H9.6696H9.70318L9.71588 5.7129C10.089 4.79988 11.1492 4.12349 12.24 4.12349C13.6546 4.12349 14.71 5.13329 14.71 6.47676C14.71 7.44967 14.1557 8.42306 13.164 9.52814C12.173 10.6325 10.7538 11.8592 9.03932 13.3397ZM8.96722 15.338L9 15.3664L9.03278 15.338L10.0767 14.4316C11.9297 12.8292 13.472 11.4944 14.5505 10.2361C15.6294 8.97722 16.25 7.78832 16.25 6.47676C16.25 4.32514 14.4829 2.6502 12.24 2.6502C10.9925 2.6502 9.7947 3.19519 9 4.05425C8.2053 3.19519 7.00745 2.6502 5.76 2.6502C3.51711 2.6502 1.75 4.32514 1.75 6.47676C1.75 7.78832 2.3706 8.97722 3.44953 10.2361C4.52801 11.4944 6.07031 12.8292 7.92329 14.4316L8.96722 15.338Z" fill="#3F3F3F" stroke="#828282" stroke-width="0.1"/>
</svg>
